<?xml version="1.0" standalone="no"?>
<!DOCTYPE svg PUBLIC "-//W3C//DTD SVG 20010904//EN"
 "http://www.w3.org/TR/2001/REC-SVG-20010904/DTD/svg10.dtd">
<svg version="1.0" xmlns="http://www.w3.org/2000/svg"
 width="627.000000pt" height="239.000000pt" viewBox="0 0 627.000000 239.000000"
 preserveAspectRatio="xMidYMid meet">
<metadata>
Created by potrace 1.16, written by Peter Selinger 2001-2019
</metadata>
<g transform="translate(0.000000,239.000000) scale(0.100000,-0.100000)"
fill="#000000" stroke="none">
<path d="M2040 1549 c0 -5 -3 -8 -7 -8 -31 5 -35 -2 -28 -43 4 -24 9 -244 12
-490 l3 -448 106 0 105 0 -3 154 c-3 157 2 177 32 120 7 -13 17 -24 22 -24 4
0 8 -5 8 -10 0 -6 9 -20 20 -32 11 -12 20 -28 20 -35 0 -7 4 -13 9 -13 8 0 65
-83 90 -132 14 -28 15 -28 121 -28 59 0 109 3 112 6 15 14 -32 114 -72 154 -3
3 -11 17 -19 32 -8 15 -21 36 -30 45 -9 10 -27 34 -41 53 -13 19 -32 41 -42
48 -10 7 -18 19 -18 26 0 7 -11 19 -25 26 -25 13 -33 30 -15 30 10 0 168 155
203 198 9 12 17 33 17 47 l0 25 -103 0 c-94 0 -104 -2 -122 -22 -11 -13 -20
-26 -20 -29 0 -13 -66 -99 -76 -99 -5 0 -9 -4 -9 -9 0 -10 -51 -71 -60 -71 -3
0 -5 120 -5 267 l0 268 -92 1 c-51 1 -93 -3 -93 -7z"/>
<path d="M1050 1393 c-19 -10 -37 -20 -40 -23 -3 -3 -21 -14 -40 -23 -57 -27
-68 -41 -72 -82 l-3 -39 -54 3 -53 3 5 -49 c10 -91 18 -113 42 -119 12 -3 30
-4 40 -2 13 2 21 -9 32 -47 19 -63 20 -111 4 -200 -10 -56 -10 -78 0 -110 16
-52 69 -124 92 -125 9 0 17 -4 17 -10 0 -5 7 -10 16 -10 8 0 13 -4 10 -9 -3
-4 35 -9 84 -10 50 -1 90 2 90 7 0 5 11 15 25 22 24 13 26 18 23 84 l-3 71
-66 0 c-39 0 -72 5 -81 13 -16 13 -24 86 -30 251 l-3 74 83 -2 82 -2 0 34 c0
18 3 37 8 41 4 4 7 28 8 52 l1 44 -86 0 -86 0 3 90 c2 49 0 90 -5 90 -4 0 -24
-8 -43 -17z"/>
<path d="M1495 1261 c-6 -6 -34 -11 -62 -12 -29 -2 -51 -5 -48 -7 3 -3 -3 -11
-14 -18 -14 -10 -18 -28 -20 -80 -1 -37 -4 -71 -7 -76 -3 -4 0 -8 5 -8 6 0 11
5 11 10 0 6 27 10 60 10 33 0 60 4 60 10 0 6 32 10 75 10 43 0 75 -4 75 -10 0
-5 12 -10 28 -10 20 0 30 -7 40 -27 24 -52 18 -59 -48 -57 -33 1 -60 -2 -60
-7 0 -5 -16 -9 -35 -9 -20 0 -59 -13 -92 -31 -59 -32 -122 -79 -106 -79 4 0 1
-6 -7 -13 -8 -7 -17 -21 -18 -32 -2 -11 -8 -24 -13 -29 -13 -14 -12 -119 1
-111 6 4 10 -5 10 -20 0 -15 4 -24 10 -20 6 3 10 1 10 -6 0 -16 48 -59 65 -59
8 0 20 -9 27 -20 11 -17 24 -20 99 -20 71 0 89 3 107 20 12 11 28 20 36 20 7
0 16 7 20 15 9 24 26 17 26 -10 0 -14 5 -25 11 -25 5 0 8 -3 6 -7 -6 -10 42
-9 65 1 10 5 39 6 66 4 l48 -3 -7 44 c-3 24 -5 68 -3 98 3 31 0 53 -6 53 -6 0
-10 33 -9 83 1 58 3 75 9 57 6 -16 8 11 7 75 -1 55 -6 103 -11 107 -5 3 -9 20
-8 36 0 18 -5 33 -14 36 -8 3 -14 10 -14 17 0 9 -40 51 -75 77 -5 4 -23 9 -40
11 -16 1 -38 7 -47 12 -22 12 -201 12 -213 0z m215 -461 c0 -68 -1 -70 -26
-70 -14 0 -23 -4 -19 -10 8 -12 -114 -14 -133 -1 -21 13 -11 92 13 105 11 6
22 14 25 18 3 4 29 8 58 9 29 2 55 6 58 11 15 24 24 0 24 -62z"/>
<path d="M374 1229 c-109 -53 -214 -207 -214 -314 0 -112 99 -250 224 -311 74
-37 188 -38 268 -2 96 44 141 95 200 223 5 12 8 50 6 85 -4 79 -24 91 -60 36
-13 -20 -26 -36 -30 -36 -5 0 -8 35 -8 78 0 67 -4 84 -30 129 -31 54 -87 99
-151 121 -55 19 -157 14 -205 -9z m244 -155 c55 -40 82 -85 82 -138 0 -25 -5
-48 -10 -51 -6 -4 -8 -11 -4 -16 3 -5 10 -7 15 -4 5 4 12 -1 15 -10 9 -22 -19
-50 -79 -80 -68 -34 -173 -35 -225 -3 -48 30 -92 102 -92 152 0 51 39 118 93
157 39 29 47 31 104 26 47 -3 71 -11 101 -33z"/>
<path d="M170 259 c0 -79 4 -129 10 -130 62 -6 65 -5 68 39 3 39 5 42 33 42
16 0 29 5 29 10 0 6 9 10 20 10 13 0 20 7 20 19 0 11 5 23 10 26 6 3 10 17 10
31 0 16 6 24 18 24 15 0 17 -10 14 -91 -2 -51 1 -95 7 -102 5 -7 23 -12 38
-11 l28 1 3 104 3 104 39 -3 c39 -4 40 -3 40 27 l0 31 -195 -1 -195 0 0 -130z"/>
<path d="M673 365 c-13 -13 -23 -31 -23 -38 0 -8 -7 -20 -15 -27 -19 -16 -19
-51 0 -76 8 -10 15 -25 15 -32 0 -18 25 -42 44 -42 9 0 16 -4 16 -9 0 -5 23
-11 50 -13 35 -2 50 1 50 10 0 6 7 12 16 12 20 0 44 24 44 45 0 8 6 18 14 21
20 8 17 85 -4 101 -8 7 -13 13 -10 13 3 1 20 3 38 4 l32 4 0 -107 0 -108 30 5
30 4 0 99 0 98 38 3 c32 3 37 7 40 31 l3 27 -110 0 c-68 0 -112 -4 -117 -11
-4 -8 -9 -8 -17 0 -6 6 -40 11 -76 10 -56 0 -69 -4 -88 -24z"/>
<path d="M1095 360 c-8 -16 -15 -36 -15 -45 0 -8 -4 -15 -10 -15 -5 0 -10 -13
-10 -30 0 -16 -4 -30 -10 -30 -5 0 -10 -13 -10 -30 0 -16 -5 -30 -11 -30 -6 0
-9 -12 -7 -27 3 -23 8 -27 38 -27 32 -1 35 1 38 32 3 31 5 32 47 32 42 0 44
-1 47 -33 l3 -32 65 0 65 0 5 50 c5 40 8 46 15 30 5 -11 19 -29 32 -41 13 -12
23 -25 23 -30 0 -5 17 -9 37 -8 56 1 56 30 -1 85 -25 24 -46 51 -46 59 0 8 21
34 45 58 25 24 45 48 45 53 0 5 -20 9 -44 9 -37 0 -47 -4 -62 -27 -36 -56 -44
-58 -44 -14 l0 41 -40 0 -40 0 0 -76 c0 -47 -4 -73 -10 -69 -5 3 -10 17 -10
30 0 13 -4 27 -10 30 -5 3 -10 18 -10 32 0 32 -25 52 -67 53 -26 0 -36 -6 -48
-30z"/>
<path d="M1582 258 l3 -132 30 0 c29 0 30 1 30 47 0 26 2 47 5 47 9 0 40 -39
40 -50 0 -6 4 -10 9 -10 5 0 11 -8 13 -18 3 -14 14 -17 61 -17 51 0 57 2 57
21 0 29 19 44 57 44 28 0 33 -3 33 -24 0 -33 12 -39 81 -40 l59 -1 1 75 c0 62
2 71 11 50 5 -14 16 -37 24 -51 7 -14 11 -29 7 -33 -3 -3 -1 -6 5 -6 6 0 13
-8 16 -17 5 -15 18 -18 73 -18 59 1 68 3 72 20 6 33 22 45 58 45 25 0 34 -4
30 -13 -2 -7 3 -22 12 -32 12 -16 28 -20 71 -20 l55 0 3 58 c2 33 7 55 13 52
5 -4 9 -15 9 -26 0 -10 5 -19 10 -19 6 0 10 -7 10 -15 0 -35 72 -67 96 -43 3
4 7 63 8 132 l1 126 -42 0 -43 0 0 -41 c0 -24 -4 -38 -10 -34 -5 3 -10 15 -10
26 0 10 -4 19 -10 19 -5 0 -10 7 -10 15 0 11 -12 15 -50 15 l-50 0 0 -77 c0
-73 -1 -76 -16 -55 -8 12 -13 31 -9 41 3 12 0 21 -10 25 -9 3 -15 18 -15 36 0
29 -1 30 -50 30 -43 0 -50 -3 -50 -19 0 -11 -4 -23 -10 -26 -5 -3 -10 -19 -10
-36 0 -16 -4 -29 -10 -29 -5 0 -10 -11 -10 -24 0 -14 -4 -28 -10 -31 -6 -4
-10 25 -10 80 l0 86 -42 -3 c-41 -3 -43 -5 -42 -33 0 -16 4 -39 8 -50 6 -16 4
-15 -13 5 -11 14 -21 31 -21 38 0 26 -29 42 -74 42 l-46 0 3 -92 c2 -51 2 -84
-1 -73 -2 11 -8 24 -13 29 -5 6 -9 22 -9 37 0 15 -4 29 -10 31 -5 2 -10 17
-12 34 -2 30 -3 31 -55 33 -51 2 -53 1 -53 -24 0 -15 -4 -24 -10 -20 -6 4 -10
-8 -10 -29 0 -20 -4 -36 -10 -36 -5 0 -10 -11 -10 -25 0 -14 -4 -25 -10 -25
-5 0 -10 -8 -10 -17 0 -13 -8 -9 -30 17 -16 19 -30 38 -30 42 0 5 18 27 40 49
51 52 51 69 4 69 -30 0 -43 -7 -74 -42 l-39 -41 6 41 6 42 -37 0 -37 0 3 -132z"/>
<path d="M2778 360 c-25 -25 -28 -36 -28 -94 0 -53 4 -71 22 -91 12 -14 27
-25 34 -25 7 0 17 -6 21 -12 10 -16 95 -17 108 -1 6 6 19 13 30 15 18 3 20 11
20 68 l0 65 -68 3 -67 3 2 -31 c2 -27 6 -30 35 -30 38 0 45 -23 13 -40 -16 -9
-22 -8 -26 5 -4 9 -13 14 -21 11 -8 -3 -16 2 -19 12 -3 9 -10 25 -15 34 -5 11
-5 19 1 23 6 3 10 14 10 25 0 31 77 43 100 15 7 -8 23 -15 35 -15 18 0 25 7
30 31 10 46 -13 58 -110 58 -75 0 -82 -2 -107 -29z"/>
<path d="M3000 231 l0 -99 30 -4 30 -5 0 74 c0 70 1 73 24 73 21 0 23 -4 22
-42 -1 -37 3 -47 31 -73 28 -26 40 -30 73 -27 22 2 40 8 40 13 0 5 9 9 20 9
13 0 20 7 20 19 0 11 5 23 10 26 6 3 10 -3 10 -14 0 -40 29 -56 103 -56 64 0
68 1 75 25 6 20 8 13 12 -30 5 -54 6 -55 39 -58 20 -2 31 0 27 7 -4 5 -2 12 4
16 5 3 10 15 10 26 0 16 6 20 27 17 19 -2 35 5 54 24 24 24 28 38 31 96 3 62
1 68 -14 64 -10 -2 -18 1 -18 7 0 7 -28 11 -80 11 l-79 0 -4 -77 -3 -78 -2 78
-2 77 -35 0 -35 0 0 -59 c0 -39 -5 -63 -15 -71 -25 -20 -35 -1 -35 66 l0 64
-30 0 c-25 0 -30 -4 -30 -25 0 -14 -4 -25 -10 -25 -5 0 -10 5 -10 11 0 6 -6
17 -14 25 -19 18 -122 19 -129 2 -4 -10 -6 -10 -6 0 -1 8 -22 12 -71 12 l-70
0 0 -99z"/>
</g>
</svg>
